<mxfile host="app.diagrams.net" modified="2023-07-27T05:55:31.312Z" agent="Mozilla/5.0 (Macintosh; Intel Mac OS X 10_15_7) AppleWebKit/537.36 (KHTML, like Gecko) Chrome/114.0.0.0 Safari/537.36" etag="hvlPMUe8f2B9X-NwgAYy" version="21.6.3" type="github">
  <diagram name="第 1 页" id="hUIBmvivL9PG1333Ilvf">
    <mxGraphModel dx="954" dy="521" grid="1" gridSize="10" guides="1" tooltips="1" connect="1" arrows="1" fold="1" page="1" pageScale="1" pageWidth="850" pageHeight="1100" math="0" shadow="0">
      <root>
        <mxCell id="0" />
        <mxCell id="1" parent="0" />
        <mxCell id="TefCUdisitrVdh6epml9-1" value="" style="edgeStyle=orthogonalEdgeStyle;rounded=1;orthogonalLoop=1;jettySize=auto;html=1;strokeColor=#E07A5F;fontColor=default;fillColor=#F2CC8F;sketch=1;curveFitting=1;jiggle=2;labelBackgroundColor=none;" edge="1" parent="1" target="TefCUdisitrVdh6epml9-4">
          <mxGeometry relative="1" as="geometry">
            <mxPoint x="180" y="810.0000000000002" as="sourcePoint" />
          </mxGeometry>
        </mxCell>
        <mxCell id="TefCUdisitrVdh6epml9-2" value="广播" style="edgeLabel;html=1;align=center;verticalAlign=middle;resizable=0;points=[];fontColor=#393C56;sketch=1;curveFitting=1;jiggle=2;labelBackgroundColor=none;rounded=1;" vertex="1" connectable="0" parent="TefCUdisitrVdh6epml9-1">
          <mxGeometry x="-0.167" y="2" relative="1" as="geometry">
            <mxPoint as="offset" />
          </mxGeometry>
        </mxCell>
        <mxCell id="TefCUdisitrVdh6epml9-3" value="" style="edgeStyle=orthogonalEdgeStyle;rounded=1;orthogonalLoop=1;jettySize=auto;html=1;strokeColor=#E07A5F;fontColor=default;fillColor=#F2CC8F;sketch=1;curveFitting=1;jiggle=2;labelBackgroundColor=none;" edge="1" parent="1" source="TefCUdisitrVdh6epml9-4" target="TefCUdisitrVdh6epml9-10">
          <mxGeometry relative="1" as="geometry" />
        </mxCell>
        <mxCell id="TefCUdisitrVdh6epml9-4" value="kafka事件流" style="rounded=1;whiteSpace=wrap;html=1;strokeColor=#E07A5F;fontColor=#393C56;fillColor=#F2CC8F;sketch=1;curveFitting=1;jiggle=2;labelBackgroundColor=none;" vertex="1" parent="1">
          <mxGeometry x="120" y="900" width="120" height="60" as="geometry" />
        </mxCell>
        <mxCell id="TefCUdisitrVdh6epml9-5" value="" style="edgeStyle=orthogonalEdgeStyle;rounded=1;orthogonalLoop=1;jettySize=auto;html=1;strokeColor=#E07A5F;fontColor=default;fillColor=#F2CC8F;entryX=0;entryY=0.5;entryDx=0;entryDy=0;sketch=1;curveFitting=1;jiggle=2;labelBackgroundColor=none;" edge="1" parent="1" source="TefCUdisitrVdh6epml9-10" target="TefCUdisitrVdh6epml9-20">
          <mxGeometry relative="1" as="geometry" />
        </mxCell>
        <mxCell id="TefCUdisitrVdh6epml9-6" value="" style="edgeStyle=orthogonalEdgeStyle;rounded=1;orthogonalLoop=1;jettySize=auto;html=1;strokeColor=#E07A5F;fontColor=default;fillColor=#F2CC8F;exitX=1;exitY=0.5;exitDx=0;exitDy=0;sketch=1;curveFitting=1;jiggle=2;labelBackgroundColor=none;" edge="1" parent="1" source="TefCUdisitrVdh6epml9-10" target="TefCUdisitrVdh6epml9-14">
          <mxGeometry relative="1" as="geometry">
            <Array as="points">
              <mxPoint x="590" y="930" />
              <mxPoint x="590" y="820" />
            </Array>
          </mxGeometry>
        </mxCell>
        <mxCell id="TefCUdisitrVdh6epml9-7" value="" style="edgeStyle=orthogonalEdgeStyle;rounded=1;orthogonalLoop=1;jettySize=auto;html=1;strokeColor=#E07A5F;fontColor=default;fillColor=#F2CC8F;entryX=0;entryY=0.5;entryDx=0;entryDy=0;exitX=1;exitY=0.5;exitDx=0;exitDy=0;sketch=1;curveFitting=1;jiggle=2;labelBackgroundColor=none;" edge="1" parent="1" source="TefCUdisitrVdh6epml9-10" target="TefCUdisitrVdh6epml9-16">
          <mxGeometry relative="1" as="geometry" />
        </mxCell>
        <mxCell id="TefCUdisitrVdh6epml9-8" style="edgeStyle=orthogonalEdgeStyle;rounded=1;orthogonalLoop=1;jettySize=auto;html=1;entryX=0;entryY=0.5;entryDx=0;entryDy=0;strokeColor=#E07A5F;fontColor=default;fillColor=#F2CC8F;sketch=1;curveFitting=1;jiggle=2;labelBackgroundColor=none;" edge="1" parent="1" source="TefCUdisitrVdh6epml9-10" target="TefCUdisitrVdh6epml9-12">
          <mxGeometry relative="1" as="geometry" />
        </mxCell>
        <mxCell id="TefCUdisitrVdh6epml9-9" style="edgeStyle=orthogonalEdgeStyle;rounded=1;orthogonalLoop=1;jettySize=auto;html=1;entryX=0;entryY=0.5;entryDx=0;entryDy=0;strokeColor=#E07A5F;fontColor=default;fillColor=#F2CC8F;sketch=1;curveFitting=1;jiggle=2;labelBackgroundColor=none;" edge="1" parent="1" source="TefCUdisitrVdh6epml9-10" target="TefCUdisitrVdh6epml9-18">
          <mxGeometry relative="1" as="geometry" />
        </mxCell>
        <mxCell id="TefCUdisitrVdh6epml9-10" value="事件流结合广播流对数据按照计算类型分类" style="rounded=1;whiteSpace=wrap;html=1;strokeColor=#E07A5F;fontColor=#393C56;fillColor=#F2CC8F;sketch=1;curveFitting=1;jiggle=2;labelBackgroundColor=none;" vertex="1" parent="1">
          <mxGeometry x="422.5" y="900" width="120" height="60" as="geometry" />
        </mxCell>
        <mxCell id="TefCUdisitrVdh6epml9-11" style="edgeStyle=orthogonalEdgeStyle;rounded=1;orthogonalLoop=1;jettySize=auto;html=1;entryX=0;entryY=0.5;entryDx=0;entryDy=0;strokeColor=#E07A5F;fontColor=default;fillColor=#F2CC8F;sketch=1;curveFitting=1;jiggle=2;labelBackgroundColor=none;" edge="1" parent="1" source="TefCUdisitrVdh6epml9-12" target="TefCUdisitrVdh6epml9-23">
          <mxGeometry relative="1" as="geometry" />
        </mxCell>
        <mxCell id="TefCUdisitrVdh6epml9-12" value="COUNT" style="rounded=1;whiteSpace=wrap;html=1;strokeColor=#E07A5F;fontColor=#393C56;fillColor=#F2CC8F;flipV=0;sketch=1;curveFitting=1;jiggle=2;labelBackgroundColor=none;" vertex="1" parent="1">
          <mxGeometry x="640" y="680" width="120" height="60" as="geometry" />
        </mxCell>
        <mxCell id="TefCUdisitrVdh6epml9-13" style="edgeStyle=orthogonalEdgeStyle;rounded=1;orthogonalLoop=1;jettySize=auto;html=1;entryX=0;entryY=0.5;entryDx=0;entryDy=0;strokeColor=#E07A5F;fontColor=default;fillColor=#F2CC8F;sketch=1;curveFitting=1;jiggle=2;labelBackgroundColor=none;" edge="1" parent="1" source="TefCUdisitrVdh6epml9-14" target="TefCUdisitrVdh6epml9-23">
          <mxGeometry relative="1" as="geometry" />
        </mxCell>
        <mxCell id="TefCUdisitrVdh6epml9-14" value="DISTINCT COUNT" style="whiteSpace=wrap;html=1;fillColor=#F2CC8F;strokeColor=#E07A5F;fontColor=#393C56;rounded=1;flipV=0;sketch=1;curveFitting=1;jiggle=2;labelBackgroundColor=none;" vertex="1" parent="1">
          <mxGeometry x="640" y="790" width="120" height="60" as="geometry" />
        </mxCell>
        <mxCell id="TefCUdisitrVdh6epml9-15" style="edgeStyle=orthogonalEdgeStyle;rounded=1;orthogonalLoop=1;jettySize=auto;html=1;entryX=0;entryY=0.5;entryDx=0;entryDy=0;strokeColor=#E07A5F;fontColor=default;fillColor=#F2CC8F;sketch=1;curveFitting=1;jiggle=2;labelBackgroundColor=none;" edge="1" parent="1" source="TefCUdisitrVdh6epml9-16" target="TefCUdisitrVdh6epml9-23">
          <mxGeometry relative="1" as="geometry" />
        </mxCell>
        <mxCell id="TefCUdisitrVdh6epml9-16" value="MAX" style="whiteSpace=wrap;html=1;fillColor=#F2CC8F;strokeColor=#E07A5F;fontColor=#393C56;rounded=1;flipV=0;sketch=1;curveFitting=1;jiggle=2;labelBackgroundColor=none;" vertex="1" parent="1">
          <mxGeometry x="640" y="1120" width="120" height="60" as="geometry" />
        </mxCell>
        <mxCell id="TefCUdisitrVdh6epml9-17" style="edgeStyle=orthogonalEdgeStyle;rounded=1;orthogonalLoop=1;jettySize=auto;html=1;strokeColor=#E07A5F;fontColor=default;fillColor=#F2CC8F;sketch=1;curveFitting=1;jiggle=2;labelBackgroundColor=none;" edge="1" parent="1" source="TefCUdisitrVdh6epml9-18">
          <mxGeometry relative="1" as="geometry">
            <mxPoint x="850.0000000000005" y="929.9999999999998" as="targetPoint" />
          </mxGeometry>
        </mxCell>
        <mxCell id="TefCUdisitrVdh6epml9-18" value="DISTINCT" style="rounded=1;whiteSpace=wrap;html=1;strokeColor=#E07A5F;fontColor=#393C56;fillColor=#F2CC8F;flipV=0;sketch=1;curveFitting=1;jiggle=2;labelBackgroundColor=none;" vertex="1" parent="1">
          <mxGeometry x="640" y="900" width="120" height="60" as="geometry" />
        </mxCell>
        <mxCell id="TefCUdisitrVdh6epml9-19" style="edgeStyle=orthogonalEdgeStyle;rounded=1;orthogonalLoop=1;jettySize=auto;html=1;entryX=0;entryY=0.5;entryDx=0;entryDy=0;strokeColor=#E07A5F;fontColor=default;fillColor=#F2CC8F;sketch=1;curveFitting=1;jiggle=2;labelBackgroundColor=none;" edge="1" parent="1" source="TefCUdisitrVdh6epml9-20" target="TefCUdisitrVdh6epml9-23">
          <mxGeometry relative="1" as="geometry" />
        </mxCell>
        <mxCell id="TefCUdisitrVdh6epml9-20" value="SUM" style="rounded=1;whiteSpace=wrap;html=1;strokeColor=#E07A5F;fontColor=#393C56;fillColor=#F2CC8F;flipV=0;sketch=1;curveFitting=1;jiggle=2;labelBackgroundColor=none;" vertex="1" parent="1">
          <mxGeometry x="640" y="1010" width="120" height="60" as="geometry" />
        </mxCell>
        <mxCell id="TefCUdisitrVdh6epml9-21" value="累计因子配置信息" style="shape=image;html=1;verticalLabelPosition=bottom;verticalAlign=top;imageAspect=1;aspect=fixed;image=img/clipart/Gear_128x128.png;strokeColor=#E07A5F;fontColor=#393C56;fillColor=#F2CC8F;sketch=1;curveFitting=1;jiggle=2;labelBackgroundColor=none;rounded=1;" vertex="1" parent="1">
          <mxGeometry x="154" y="729" width="52" height="61" as="geometry" />
        </mxCell>
        <mxCell id="TefCUdisitrVdh6epml9-22" value="" style="edgeStyle=orthogonalEdgeStyle;rounded=1;orthogonalLoop=1;jettySize=auto;html=1;strokeColor=#E07A5F;fontColor=default;fillColor=#F2CC8F;sketch=1;curveFitting=1;jiggle=2;labelBackgroundColor=none;" edge="1" parent="1" source="TefCUdisitrVdh6epml9-23" target="TefCUdisitrVdh6epml9-25">
          <mxGeometry relative="1" as="geometry" />
        </mxCell>
        <mxCell id="TefCUdisitrVdh6epml9-23" value="keyBy(按照不同维度分组)" style="rounded=1;whiteSpace=wrap;html=1;strokeColor=#E07A5F;fontColor=#393C56;fillColor=#F2CC8F;sketch=1;curveFitting=1;jiggle=2;labelBackgroundColor=none;" vertex="1" parent="1">
          <mxGeometry x="860" y="900" width="120" height="60" as="geometry" />
        </mxCell>
        <mxCell id="TefCUdisitrVdh6epml9-24" value="" style="edgeStyle=orthogonalEdgeStyle;rounded=1;orthogonalLoop=1;jettySize=auto;html=1;strokeColor=#E07A5F;fontColor=default;fillColor=#F2CC8F;sketch=1;curveFitting=1;jiggle=2;labelBackgroundColor=none;" edge="1" parent="1" source="TefCUdisitrVdh6epml9-25" target="TefCUdisitrVdh6epml9-26">
          <mxGeometry relative="1" as="geometry" />
        </mxCell>
        <mxCell id="TefCUdisitrVdh6epml9-25" value="window计算" style="rounded=1;whiteSpace=wrap;html=1;strokeColor=#E07A5F;fontColor=#393C56;fillColor=#F2CC8F;sketch=1;curveFitting=1;jiggle=2;labelBackgroundColor=none;" vertex="1" parent="1">
          <mxGeometry x="1050" y="900" width="120" height="60" as="geometry" />
        </mxCell>
        <mxCell id="TefCUdisitrVdh6epml9-26" value="写入redis" style="rounded=1;whiteSpace=wrap;html=1;strokeColor=#E07A5F;fontColor=#393C56;fillColor=#F2CC8F;sketch=1;curveFitting=1;jiggle=2;labelBackgroundColor=none;" vertex="1" parent="1">
          <mxGeometry x="1240" y="900" width="120" height="60" as="geometry" />
        </mxCell>
      </root>
    </mxGraphModel>
  </diagram>
</mxfile>
